# xmcd
#
# Track frame offsets:
#	150
#	16276
#	35653
#	54041
#	90036
#	111976
#	134222
#	161940
#	184454
#	216056
#
# Disc length: 3398 seconds
#
# Revision: 1
# Processed by: cddbd v1.5.2PL0 Copyright (c) Steve Scherf et al.
# Submitted via: EZCDAudioConverter 3.1.5.1
#
DISCID=890d440a
DTITLE=The Jacksons - Destiny - 2008 Remaster
DYEAR=2008
DGENRE=R&B
TTITLE0=Blame It on the Boogie
TTITLE1=Push Me Away
TTITLE2=Things I Do for You
TTITLE3=Shake Your Body (Down to the Ground)
TTITLE4=Destiny
TTITLE5=Bless His Soul
TTITLE6=All Night Dancin'
TTITLE7=That's What You Get (For Being Polite)
TTITLE8=Blame It on the Boogie (John Luongo disco mix)
TTITLE9=Shake Your Body (Down to the Ground) (John Luongo disco mix)
EXTD=
EXTT0=
EXTT1=
EXTT2=
EXTT3=
EXTT4=
EXTT5=
EXTT6=
EXTT7=
EXTT8=
EXTT9=
PLAYORDER=
